<?xml version="1.0" standalone="no"?>
<!DOCTYPE svg PUBLIC "-//W3C//DTD SVG 20010904//EN"
 "http://www.w3.org/TR/2001/REC-SVG-20010904/DTD/svg10.dtd">
<svg version="1.0" xmlns="http://www.w3.org/2000/svg"
 width="16.000000pt" height="16.000000pt" viewBox="0 0 16.000000 16.000000"
 preserveAspectRatio="xMidYMid meet">

<g transform="translate(0.000000,16.000000) scale(0.100000,-0.100000)"
fill="#000000" stroke="none">
<path d="M76 137 c-77 -25 -94 -44 -47 -53 35 -7 46 -18 55 -57 4 -16 12 -27
18 -25 17 6 66 159 51 157 -5 0 -39 -10 -77 -22z m59 -7 c8 -12 -26 -121 -35
-115 -4 3 -10 17 -13 32 -4 21 1 36 21 58 l27 30 -31 -28 c-21 -19 -37 -26
-50 -21 -10 3 -26 8 -34 11 -9 3 5 13 35 23 59 22 72 23 80 10z"/>
</g>
</svg>
